<svg width="400" height="145" viewBox="0 0 400 145" fill="none" xmlns="http://www.w3.org/2000/svg">
<g clip-path="url(#clip0_186_23)">
<path d="M400 0H0V145H400V0Z" fill="#F6EFE6"/>
<path d="M13.3656 59.612V40.2142L14.7792 41.3097H8.99609V36.0897H19.3415V59.612H13.3656ZM54.0014 66.7009C52.4592 66.7009 51.1204 66.529 49.9853 66.1853C48.8501 65.8417 47.9612 65.2078 47.3187 64.2842C46.6975 63.3605 46.3869 62.0178 46.3869 60.2564V56.3897H51.9773V60.3853C51.9773 60.9867 52.1379 61.4378 52.4592 61.7386C52.8019 62.0394 53.273 62.1897 53.8729 62.1897H57.2142V66.7009H54.0014ZM49.3428 60.2564C47.2007 60.2564 45.3373 59.8912 43.7524 59.1609C42.1673 58.409 40.8501 57.4317 39.8006 56.2286C38.751 55.0042 37.9693 53.6831 37.4552 52.2653C36.9412 50.8475 36.6841 49.4728 36.6841 48.1409V47.432C36.6841 45.9498 36.9518 44.4997 37.4873 43.082C38.0228 41.6428 38.826 40.3431 39.897 39.1831C40.9678 38.0231 42.2851 37.0994 43.8488 36.412C45.4337 35.7245 47.265 35.3809 49.3428 35.3809C51.399 35.3809 53.2088 35.7245 54.7725 36.412C56.3574 37.0994 57.6854 38.0231 58.7564 39.1831C59.8273 40.3431 60.6305 41.6428 61.1661 43.082C61.7228 44.4997 62.0014 45.9498 62.0014 47.432V48.1409C62.0014 49.4728 61.7336 50.8475 61.1982 52.2653C60.6841 53.6831 59.9023 55.0042 58.8528 56.2286C57.8032 57.4317 56.4859 58.409 54.901 59.1609C53.3159 59.8912 51.4632 60.2564 49.3428 60.2564ZM49.3428 54.6497C50.3709 54.6497 51.2918 54.4778 52.1058 54.1342C52.9196 53.7905 53.6159 53.3072 54.1942 52.6842C54.7725 52.0612 55.2115 51.3417 55.5114 50.5253C55.8112 49.6875 55.9612 48.7853 55.9612 47.8186C55.9612 46.7875 55.8006 45.8531 55.4793 45.0153C55.1794 44.1775 54.7404 43.4578 54.162 42.8564C53.5837 42.255 52.8875 41.7931 52.0737 41.4709C51.2597 41.1486 50.3493 40.9875 49.3428 40.9875C48.3146 40.9875 47.3935 41.1486 46.5797 41.4709C45.7657 41.7931 45.0697 42.255 44.4914 42.8564C43.913 43.4578 43.4738 44.1775 43.1741 45.0153C42.8742 45.8531 42.7243 46.7875 42.7243 47.8186C42.7243 48.7853 42.8742 49.6875 43.1741 50.5253C43.4738 51.3417 43.913 52.0612 44.4914 52.6842C45.0697 53.3072 45.7657 53.7905 46.5797 54.1342C47.3935 54.4778 48.3146 54.6497 49.3428 54.6497ZM74.8289 60.192C72.8155 60.192 71.252 59.5367 70.1381 58.2264C69.0457 56.8945 68.4995 54.8645 68.4995 52.1364V41.8253H74.3469V52.2975C74.3469 53.0923 74.5826 53.7367 75.0538 54.2309C75.5251 54.725 76.1569 54.972 76.9493 54.972C77.742 54.972 78.3845 54.725 78.8771 54.2309C79.3697 53.7367 79.616 53.0709 79.616 52.2331V41.8253H85.4634V59.612H80.8369V52.1364H81.1582C81.1582 53.9623 80.9227 55.4767 80.4514 56.6797C80.0016 57.8612 79.3269 58.742 78.4273 59.322C77.5277 59.902 76.4139 60.192 75.0859 60.192H74.8289ZM104.046 59.612V54.392H103.082V48.8175C103.082 48.0012 102.89 47.3997 102.504 47.0131C102.14 46.605 101.53 46.4009 100.673 46.4009C100.266 46.4009 99.6661 46.4117 98.8735 46.4331C98.0811 46.4545 97.2457 46.4867 96.3675 46.5297C95.4894 46.5728 94.6862 46.6156 93.9579 46.6586V41.7609C94.4719 41.7178 95.0824 41.675 95.7892 41.632C96.496 41.589 97.2244 41.5567 97.9739 41.5353C98.745 41.5139 99.4518 41.5031 100.094 41.5031C101.915 41.5031 103.457 41.7717 104.721 42.3086C106.006 42.8456 106.981 43.6512 107.645 44.7253C108.33 45.7994 108.673 47.1634 108.673 48.8175V59.612H104.046ZM98.4237 60.0631C97.1815 60.0631 96.0783 59.8375 95.1145 59.3864C94.1506 58.9353 93.3903 58.2909 92.8334 57.4531C92.2979 56.5939 92.0301 55.5734 92.0301 54.392C92.0301 53.0601 92.3836 51.9861 93.0904 51.1697C93.7972 50.332 94.7718 49.7198 96.0141 49.3331C97.2565 48.9464 98.6808 48.7531 100.287 48.7531H103.725V51.782H100.287C99.4947 51.782 98.8843 51.9861 98.4559 52.3942C98.0276 52.7809 97.8133 53.3072 97.8133 53.9731C97.8133 54.6175 98.0276 55.1439 98.4559 55.552C98.8843 55.9386 99.4947 56.132 100.287 56.132C100.801 56.132 101.251 56.0461 101.637 55.8742C102.044 55.6809 102.376 55.3586 102.633 54.9075C102.89 54.4564 103.04 53.8334 103.082 53.0386L104.432 54.3275C104.325 55.552 104.025 56.5939 103.532 57.4531C103.061 58.2909 102.397 58.9353 101.54 59.3864C100.705 59.8375 99.6661 60.0631 98.4237 60.0631ZM116.114 59.612V41.8253H120.741V49.5586H120.676C120.676 47.0667 121.19 45.112 122.218 43.6942C123.268 42.2764 124.767 41.5675 126.716 41.5675H127.423V46.5942H126.074C124.767 46.5942 123.75 46.9486 123.022 47.6575C122.315 48.3664 121.961 49.3867 121.961 50.7186V59.612H116.114ZM142.154 59.8697C140.226 59.8697 138.684 59.6334 137.528 59.1609C136.393 58.6883 135.568 57.9042 135.054 56.8086C134.54 55.7131 134.283 54.2309 134.283 52.362L134.315 37.1853H139.712L139.68 52.5231C139.68 53.3178 139.884 53.9301 140.291 54.3598C140.719 54.7678 141.33 54.972 142.122 54.972H144.564V59.8697H142.154ZM131.712 46.0786V41.8253H144.564V46.0786H131.712ZM160.005 60.2564C158.441 60.2564 157.049 60.0201 155.828 59.5475C154.607 59.075 153.568 58.4198 152.711 57.582C151.876 56.7442 151.234 55.7775 150.784 54.682C150.355 53.5864 150.141 52.4156 150.141 51.1697V50.3964C150.141 49.1075 150.366 47.9045 150.816 46.7875C151.287 45.6705 151.951 44.6931 152.808 43.8553C153.665 43.0175 154.703 42.3623 155.924 41.8897C157.145 41.4172 158.505 41.1809 160.005 41.1809C161.525 41.1809 162.885 41.4172 164.085 41.8897C165.306 42.3623 166.344 43.0175 167.202 43.8553C168.058 44.6931 168.712 45.6705 169.162 46.7875C169.632 47.9045 169.868 49.1075 169.868 50.3964V51.1697C169.868 52.4156 169.643 53.5864 169.194 54.682C168.765 55.7775 168.122 56.7442 167.266 57.582C166.431 58.4198 165.403 59.075 164.182 59.5475C162.961 60.0201 161.568 60.2564 160.005 60.2564ZM160.005 55.3586C160.905 55.3586 161.643 55.1653 162.222 54.7786C162.821 54.392 163.271 53.855 163.571 53.1675C163.87 52.4586 164.021 51.6639 164.021 50.7831C164.021 49.8594 163.86 49.0539 163.539 48.3664C163.239 47.6575 162.789 47.099 162.19 46.6909C161.589 46.2828 160.861 46.0786 160.005 46.0786C159.148 46.0786 158.42 46.2828 157.82 46.6909C157.22 47.099 156.76 47.6575 156.438 48.3664C156.138 49.0539 155.989 49.8594 155.989 50.7831C155.989 51.6639 156.138 52.4586 156.438 53.1675C156.738 53.855 157.188 54.392 157.788 54.7786C158.387 55.1653 159.126 55.3586 160.005 55.3586Z" fill="#263243"/>
<path d="M202.538 59.612V54.4564C202.538 53.4253 202.71 52.5231 203.052 51.7497C203.417 50.955 203.973 50.2567 204.723 49.6553C205.494 49.0539 206.49 48.4953 207.711 47.9798L211.277 46.4653C212.198 46.0786 212.863 45.6167 213.269 45.0797C213.698 44.5428 213.912 43.8661 213.912 43.0497C213.912 42.2978 213.655 41.6642 213.14 41.1486C212.647 40.6117 211.92 40.3431 210.956 40.3431C209.971 40.3431 209.232 40.6223 208.739 41.1809C208.246 41.7178 208 42.4483 208 43.372H202.217C202.217 41.8253 202.549 40.4505 203.213 39.2475C203.876 38.0445 204.851 37.0994 206.136 36.412C207.443 35.7245 209.049 35.3809 210.956 35.3809C212.84 35.3809 214.426 35.7139 215.711 36.3797C217.017 37.0242 218.003 37.9156 218.667 39.0542C219.353 40.1712 219.695 41.4386 219.695 42.8564V43.2431C219.695 45.069 219.202 46.5728 218.217 47.7542C217.232 48.9356 215.647 49.999 213.462 50.9442L209.896 52.4586C209.381 52.6734 208.996 52.9097 208.739 53.1675C208.503 53.4253 208.385 53.769 208.385 54.1986V55.3586L207.004 54.4564H219.63V59.612H202.538ZM253.393 66.7009C251.851 66.7009 250.512 66.529 249.377 66.1853C248.241 65.8417 247.353 65.2078 246.71 64.2842C246.088 63.3605 245.778 62.0178 245.778 60.2564V56.3897H251.369V60.3853C251.369 60.9867 251.529 61.4378 251.851 61.7386C252.193 62.0394 252.665 62.1897 253.264 62.1897H256.606V66.7009H253.393ZM248.734 60.2564C246.593 60.2564 244.729 59.8912 243.144 59.1609C241.558 58.409 240.241 57.4317 239.192 56.2286C238.143 55.0042 237.361 53.6831 236.847 52.2653C236.332 50.8475 236.075 49.4728 236.075 48.1409V47.432C236.075 45.9498 236.344 44.4997 236.879 43.082C237.414 41.6428 238.217 40.3431 239.288 39.1831C240.36 38.0231 241.677 37.0994 243.24 36.412C244.826 35.7245 246.657 35.3809 248.734 35.3809C250.79 35.3809 252.601 35.7245 254.164 36.412C255.749 37.0994 257.076 38.0231 258.148 39.1831C259.219 40.3431 260.022 41.6428 260.557 43.082C261.115 44.4997 261.393 45.9498 261.393 47.432V48.1409C261.393 49.4728 261.124 50.8475 260.589 52.2653C260.075 53.6831 259.293 55.0042 258.244 56.2286C257.195 57.4317 255.878 58.409 254.292 59.1609C252.707 59.8912 250.855 60.2564 248.734 60.2564ZM248.734 54.6497C249.762 54.6497 250.683 54.4778 251.497 54.1342C252.312 53.7905 253.007 53.3072 253.585 52.6842C254.164 52.0612 254.602 51.3417 254.903 50.5253C255.203 49.6875 255.353 48.7853 255.353 47.8186C255.353 46.7875 255.192 45.8531 254.871 45.0153C254.57 44.1775 254.132 43.4578 253.553 42.8564C252.975 42.255 252.279 41.7931 251.465 41.4709C250.651 41.1486 249.741 40.9875 248.734 40.9875C247.706 40.9875 246.785 41.1486 245.971 41.4709C245.157 41.7931 244.461 42.255 243.883 42.8564C243.304 43.4578 242.866 44.1775 242.565 45.0153C242.265 45.8531 242.116 46.7875 242.116 47.8186C242.116 48.7853 242.265 49.6875 242.565 50.5253C242.866 51.3417 243.304 52.0612 243.883 52.6842C244.461 53.3072 245.157 53.7905 245.971 54.1342C246.785 54.4778 247.706 54.6497 248.734 54.6497ZM274.22 60.192C272.207 60.192 270.643 59.5367 269.529 58.2264C268.437 56.8945 267.891 54.8645 267.891 52.1364V41.8253H273.738V52.2975C273.738 53.0923 273.974 53.7367 274.445 54.2309C274.916 54.725 275.549 54.972 276.341 54.972C277.132 54.972 277.775 54.725 278.268 54.2309C278.761 53.7367 279.007 53.0709 279.007 52.2331V41.8253H284.855V59.612H280.228V52.1364H280.549C280.549 53.9623 280.313 55.4767 279.843 56.6797C279.393 57.8612 278.718 58.742 277.818 59.322C276.919 59.902 275.806 60.192 274.477 60.192H274.22ZM303.438 59.612V54.392H302.474V48.8175C302.474 48.0012 302.281 47.3997 301.896 47.0131C301.531 46.605 300.92 46.4009 300.064 46.4009C299.658 46.4009 299.057 46.4117 298.265 46.4331C297.473 46.4545 296.638 46.4867 295.759 46.5297C294.88 46.5728 294.077 46.6156 293.349 46.6586V41.7609C293.863 41.7178 294.474 41.675 295.181 41.632C295.887 41.589 296.615 41.5567 297.365 41.5353C298.136 41.5139 298.843 41.5031 299.486 41.5031C301.306 41.5031 302.848 41.7717 304.112 42.3086C305.398 42.8456 306.373 43.6512 307.036 44.7253C307.722 45.7994 308.064 47.1634 308.064 48.8175V59.612H303.438ZM297.815 60.0631C296.573 60.0631 295.47 59.8375 294.506 59.3864C293.542 58.9353 292.782 58.2909 292.225 57.4531C291.69 56.5939 291.422 55.5734 291.422 54.392C291.422 53.0601 291.775 51.9861 292.482 51.1697C293.189 50.332 294.164 49.7198 295.406 49.3331C296.647 48.9464 298.072 48.7531 299.679 48.7531H303.116V51.782H299.679C298.887 51.782 298.276 51.9861 297.847 52.3942C297.418 52.7809 297.205 53.3072 297.205 53.9731C297.205 54.6175 297.418 55.1439 297.847 55.552C298.276 55.9386 298.887 56.132 299.679 56.132C300.193 56.132 300.643 56.0461 301.028 55.8742C301.434 55.6809 301.767 55.3586 302.024 54.9075C302.281 54.4564 302.43 53.8334 302.474 53.0386L303.823 54.3275C303.716 55.552 303.417 56.5939 302.924 57.4531C302.453 58.2909 301.788 58.9353 300.932 59.3864C300.096 59.8375 299.057 60.0631 297.815 60.0631ZM315.505 59.612V41.8253H320.132V49.5586H320.067C320.067 47.0667 320.581 45.112 321.61 43.6942C322.659 42.2764 324.159 41.5675 326.108 41.5675H326.814V46.5942H325.465C324.159 46.5942 323.14 46.9486 322.413 47.6575C321.706 48.3664 321.353 49.3867 321.353 50.7186V59.612H315.505ZM341.545 59.8697C339.618 59.8697 338.075 59.6334 336.919 59.1609C335.783 58.6883 334.959 57.9042 334.445 56.8086C333.931 55.7131 333.674 54.2309 333.674 52.362L333.706 37.1853H339.104L339.071 52.5231C339.071 53.3178 339.275 53.9301 339.682 54.3598C340.111 54.7678 340.721 54.972 341.513 54.972H343.955V59.8697H341.545ZM331.104 46.0786V41.8253H343.955V46.0786H331.104ZM359.396 60.2564C357.833 60.2564 356.44 60.0201 355.219 59.5475C353.998 59.075 352.959 58.4198 352.103 57.582C351.267 56.7442 350.625 55.7775 350.175 54.682C349.746 53.5864 349.532 52.4156 349.532 51.1697V50.3964C349.532 49.1075 349.757 47.9045 350.207 46.7875C350.678 45.6705 351.343 44.6931 352.199 43.8553C353.055 43.0175 354.095 42.3623 355.316 41.8897C356.536 41.4172 357.897 41.1809 359.396 41.1809C360.917 41.1809 362.276 41.4172 363.476 41.8897C364.697 42.3623 365.736 43.0175 366.593 43.8553C367.449 44.6931 368.103 45.6705 368.553 46.7875C369.023 47.9045 369.259 49.1075 369.259 50.3964V51.1697C369.259 52.4156 369.034 53.5864 368.585 54.682C368.156 55.7775 367.513 56.7442 366.657 57.582C365.822 58.4198 364.794 59.075 363.573 59.5475C362.352 60.0201 360.959 60.2564 359.396 60.2564ZM359.396 55.3586C360.296 55.3586 361.034 55.1653 361.613 54.7786C362.212 54.392 362.662 53.855 362.962 53.1675C363.263 52.4586 363.412 51.6639 363.412 50.7831C363.412 49.8594 363.251 49.0539 362.93 48.3664C362.63 47.6575 362.18 47.099 361.581 46.6909C360.981 46.2828 360.252 46.0786 359.396 46.0786C358.54 46.0786 357.81 46.2828 357.211 46.6909C356.612 47.099 356.151 47.6575 355.83 48.3664C355.529 49.0539 355.38 49.8594 355.38 50.7831C355.38 51.6639 355.529 52.4586 355.83 53.1675C356.13 53.855 356.58 54.392 357.179 54.7786C357.778 55.1653 358.517 55.3586 359.396 55.3586ZM383.031 60.192C380.461 60.192 378.437 59.6656 376.959 58.6131C375.481 57.539 374.687 56.0353 374.581 54.102H379.722C379.807 54.639 380.14 55.1009 380.718 55.4875C381.296 55.8742 382.109 56.0675 383.16 56.0675C383.908 56.0675 384.551 55.9601 385.087 55.7453C385.643 55.509 385.923 55.1331 385.923 54.6175C385.923 54.1664 385.708 53.8012 385.28 53.522C384.851 53.2212 384.069 53.0172 382.935 52.9097L381.714 52.7809C379.443 52.5445 377.772 51.9217 376.702 50.912C375.63 49.9023 375.096 48.635 375.096 47.1097C375.096 45.7994 375.417 44.7253 376.059 43.8875C376.702 43.0283 377.59 42.3839 378.726 41.9542C379.86 41.5245 381.157 41.3097 382.614 41.3097C384.991 41.3097 386.908 41.8361 388.365 42.8886C389.82 43.9198 390.591 45.4128 390.678 47.3675H385.537C385.451 46.8305 385.161 46.3794 384.67 46.0142C384.177 45.6275 383.47 45.4342 382.549 45.4342C381.884 45.4342 381.338 45.5523 380.911 45.7886C380.503 46.025 380.3 46.3578 380.3 46.7875C380.3 47.2386 380.493 47.5717 380.879 47.7864C381.285 48.0012 381.928 48.1623 382.806 48.2697L384.027 48.3986C386.297 48.635 388.043 49.2686 389.264 50.2997C390.506 51.3094 391.128 52.6412 391.128 54.2953C391.128 55.5198 390.795 56.5723 390.132 57.4531C389.489 58.3339 388.557 59.0105 387.336 59.4831C386.136 59.9556 384.702 60.192 383.031 60.192Z" fill="#263243"/>
<path d="M391.967 69.2773H202.409V70.8885H391.967V69.2773Z" fill="#FD0000"/>
<path d="M170.281 69.2773H8.03223V70.8885H170.281V69.2773Z" fill="#FD0000"/>
<path d="M17.2415 85.3883H15.8266C15.743 84.9802 15.5966 84.6216 15.3874 84.3127C15.182 84.0037 14.931 83.7443 14.6344 83.5345C14.3415 83.3211 14.0164 83.1608 13.6589 83.0539C13.3014 82.9471 12.9287 82.8938 12.5408 82.8938C11.8334 82.8938 11.1926 83.0731 10.6183 83.4316C10.0479 83.7901 9.59338 84.3183 9.25491 85.0164C8.92024 85.7144 8.7529 86.5707 8.7529 87.5852C8.7529 88.5999 8.92024 89.4562 9.25491 90.1541C9.59338 90.852 10.0479 91.3803 10.6183 91.739C11.1926 92.0974 11.8334 92.2768 12.5408 92.2768C12.9287 92.2768 13.3014 92.2233 13.6589 92.1164C14.0164 92.0096 14.3415 91.8514 14.6344 91.6417C14.931 91.428 15.182 91.1667 15.3874 90.8578C15.5966 90.5451 15.743 90.1865 15.8266 89.7823H17.2415C17.135 90.3811 16.9409 90.917 16.6595 91.3898C16.378 91.8629 16.0282 92.2653 15.6099 92.597C15.1915 92.9251 14.7219 93.1749 14.2008 93.3465C13.6836 93.5183 13.1303 93.604 12.5408 93.604C11.5444 93.604 10.6582 93.3599 9.88242 92.8717C9.10658 92.3836 8.49619 91.6893 8.05123 90.7892C7.60628 89.8891 7.38379 88.8211 7.38379 87.5852C7.38379 86.3495 7.60628 85.2815 8.05123 84.3813C8.49619 83.4812 9.10658 82.787 9.88242 82.2988C10.6582 81.8107 11.5444 81.5664 12.5408 81.5664C13.1303 81.5664 13.6836 81.6523 14.2008 81.8239C14.7219 81.9956 15.1915 82.2473 15.6099 82.5792C16.0282 82.9072 16.378 83.3077 16.6595 83.7806C16.9409 84.2497 17.135 84.7856 17.2415 85.3883ZM31.7947 87.5852C31.7947 88.8211 31.5722 89.8891 31.1274 90.7892C30.6824 91.6893 30.072 92.3836 29.2961 92.8717C28.5204 93.3599 27.6342 93.604 26.6378 93.604C25.6413 93.604 24.7552 93.3599 23.9795 92.8717C23.2036 92.3836 22.5933 91.6893 22.1483 90.7892C21.7033 89.8891 21.4808 88.8211 21.4808 87.5852C21.4808 86.3495 21.7033 85.2815 22.1483 84.3813C22.5933 83.4812 23.2036 82.787 23.9795 82.2988C24.7552 81.8107 25.6413 81.5664 26.6378 81.5664C27.6342 81.5664 28.5204 81.8107 29.2961 82.2988C30.072 82.787 30.6824 83.4812 31.1274 84.3813C31.5722 85.2815 31.7947 86.3495 31.7947 87.5852ZM30.4257 87.5852C30.4257 86.5707 30.2564 85.7144 29.9179 85.0164C29.5833 84.3183 29.1289 83.7901 28.5546 83.4316C27.9841 83.0731 27.3451 82.8938 26.6378 82.8938C25.9305 82.8938 25.2897 83.0731 24.7154 83.4316C24.1449 83.7901 23.6905 84.3183 23.352 85.0164C23.0172 85.7144 22.85 86.5707 22.85 87.5852C22.85 88.5999 23.0172 89.4562 23.352 90.1541C23.6905 90.852 24.1449 91.3803 24.7154 91.739C25.2897 92.0974 25.9305 92.2768 26.6378 92.2768C27.3451 92.2768 27.9841 92.0974 28.5546 91.739C29.1289 91.3803 29.5833 90.852 29.9179 90.1541C30.2564 89.4562 30.4257 88.5999 30.4257 87.5852ZM36.5833 81.7267H38.2718L42.2423 91.4528H42.3791L46.3496 81.7267H48.0381V93.4438H46.7147V84.5415H46.6007L42.9496 93.4438H41.6718L38.0208 84.5415H37.9067V93.4438H36.5833V81.7267ZM60.6913 81.7267L64.1597 91.5901H64.2967L67.765 81.7267H69.2482L64.9584 93.4438H63.498L59.2081 81.7267H60.6913ZM72.953 93.4438H71.4697L75.7596 81.7267H77.2199L81.5099 93.4438H80.0267L76.5355 83.5803H76.4441L72.953 93.4438ZM73.5006 88.8668H79.4791V90.1254H73.5006V88.8668ZM85.7393 93.4438V81.7267H89.6869C90.5996 81.7267 91.3488 81.883 91.9345 82.1959C92.5202 82.5047 92.9538 82.93 93.2352 83.4717C93.5167 84.0132 93.6572 84.6293 93.6572 85.3197C93.6572 86.01 93.5167 86.6222 93.2352 87.1562C92.9538 87.6901 92.5221 88.1098 91.9403 88.4149C91.3583 88.7162 90.6148 88.8668 89.7098 88.8668H86.5151V87.5852H89.6641C90.2877 87.5852 90.7898 87.4937 91.1702 87.3107C91.5543 87.1275 91.8318 86.8683 92.0029 86.5325C92.1779 86.193 92.2654 85.7888 92.2654 85.3197C92.2654 84.8505 92.1779 84.4405 92.0029 84.0896C91.828 83.7387 91.5485 83.4678 91.1644 83.2771C90.7803 83.0826 90.2725 82.9853 89.6412 82.9853H87.1541V93.4438H85.7393ZM91.2386 88.1803L94.1136 93.4438H92.4707L89.6412 88.1803H91.2386ZM98.9035 93.4438H97.4204L101.71 81.7267H103.171L107.461 93.4438H105.977L102.486 83.5803H102.395L98.9035 93.4438ZM99.4513 88.8668H105.43V90.1254H99.4513V88.8668ZM120.954 81.7267V93.4438H119.585L113.219 84.2441H113.105V93.4438H111.69V81.7267H113.059L119.448 90.9494H119.562V81.7267H120.954ZM129.8 93.4438H126.195V81.7267H129.96C131.093 81.7267 132.063 81.9613 132.869 82.4304C133.676 82.8957 134.294 83.5652 134.723 84.4385C135.153 85.3082 135.368 86.3495 135.368 87.5623C135.368 88.7829 135.151 89.8337 134.718 90.7148C134.284 91.592 133.653 92.2671 132.824 92.7401C131.995 93.2093 130.987 93.4438 129.8 93.4438ZM127.61 92.1852H129.709C130.675 92.1852 131.475 91.9982 132.111 91.6244C132.746 91.2506 133.219 90.7186 133.531 90.0283C133.843 89.3379 133.999 88.5159 133.999 87.5623C133.999 86.6164 133.845 85.8022 133.537 85.1194C133.229 84.4329 132.769 83.9065 132.156 83.5403C131.544 83.1703 130.781 82.9853 129.869 82.9853H127.61V92.1852ZM140.081 93.4438H138.598L142.887 81.7267H144.348L148.638 93.4438H147.155L143.663 83.5803H143.572L140.081 93.4438ZM140.628 88.8668H146.607V90.1254H140.628V88.8668Z" fill="#344364"/>
<path d="M204.304 81.7276L207.772 91.5909H207.909L211.377 81.7276H212.861L208.571 93.4447H207.11L202.821 81.7276H204.304ZM216.566 93.4447H215.082L219.372 81.7276H220.833L225.122 93.4447H223.639L220.148 83.5812H220.057L216.566 93.4447ZM217.114 88.8677H223.091V90.1263H217.114V88.8677ZM229.351 93.4447V81.7276H233.3C234.212 81.7276 234.961 81.8838 235.547 82.1967C236.132 82.5056 236.566 82.9309 236.849 83.4726C237.13 84.0141 237.269 84.6301 237.269 85.3205C237.269 86.0109 237.13 86.6231 236.849 87.157C236.566 87.6909 236.135 88.1106 235.552 88.4158C234.971 88.7171 234.227 88.8677 233.322 88.8677H230.127V87.5861H233.276C233.901 87.5861 234.402 87.4945 234.783 87.3115C235.167 87.1283 235.445 86.8691 235.615 86.5334C235.79 86.1939 235.878 85.7897 235.878 85.3205C235.878 84.8514 235.79 84.4413 235.615 84.0904C235.441 83.7395 235.162 83.4687 234.776 83.2779C234.392 83.0835 233.885 82.9862 233.253 82.9862H230.767V93.4447H229.351ZM234.852 88.1812L237.726 93.4447H236.084L233.253 88.1812H234.852ZM242.516 93.4447H241.033L245.322 81.7276H246.783L251.074 93.4447H249.589L246.098 83.5812H246.007L242.516 93.4447ZM243.064 88.8677H249.043V90.1263H243.064V88.8677ZM264.567 81.7276V93.4447H263.197L256.831 84.2449H256.717V93.4447H255.303V81.7276H256.672L263.061 90.9502H263.175V81.7276H264.567ZM273.412 93.4447H269.808V81.7276H273.573C274.706 81.7276 275.676 81.9621 276.482 82.4313C277.289 82.8966 277.906 83.566 278.336 84.4394C278.765 85.3091 278.98 86.3503 278.98 87.5632C278.98 88.7837 278.763 89.8345 278.33 90.7156C277.896 91.5929 277.265 92.2679 276.436 92.741C275.607 93.2101 274.6 93.4447 273.412 93.4447ZM271.223 92.1861H273.321C274.288 92.1861 275.088 91.999 275.722 91.6253C276.359 91.2515 276.833 90.7195 277.144 90.0291C277.456 89.3388 277.612 88.5168 277.612 87.5632C277.612 86.6173 277.457 85.803 277.149 85.1202C276.841 84.4337 276.381 83.9074 275.769 83.5412C275.157 83.1711 274.394 82.9862 273.482 82.9862H271.223V92.1861ZM283.694 93.4447H282.211L286.5 81.7276H287.96L292.251 93.4447H290.767L287.276 83.5812H287.184L283.694 93.4447ZM284.241 88.8677H290.219V90.1263H284.241V88.8677ZM303.408 93.4447V81.7276H310.458V82.9862H304.823V86.9453H310.094V88.2041H304.823V92.1861H310.55V93.4447H303.408ZM328.735 84.6569C328.667 84.0771 328.389 83.6269 327.902 83.3066C327.416 82.9862 326.818 82.826 326.111 82.826C325.594 82.826 325.141 82.91 324.754 83.0777C324.368 83.2456 324.068 83.4763 323.851 83.77C323.639 84.0637 323.533 84.3975 323.533 84.7713C323.533 85.084 323.607 85.3529 323.755 85.578C323.907 85.7992 324.102 85.9841 324.336 86.1328C324.572 86.2778 324.82 86.398 325.078 86.4934C325.337 86.5849 325.575 86.6593 325.792 86.7165L326.979 87.0368C327.282 87.1169 327.621 87.2276 327.994 87.3687C328.37 87.5098 328.73 87.7024 329.072 87.9466C329.417 88.1868 329.703 88.4958 329.927 88.8733C330.151 89.251 330.264 89.7145 330.264 90.2637C330.264 90.8969 330.098 91.469 329.767 91.98C329.44 92.4911 328.961 92.8974 328.33 93.1987C327.702 93.5 326.94 93.6506 326.042 93.6506C325.205 93.6506 324.481 93.5153 323.869 93.2444C323.26 92.9736 322.781 92.596 322.431 92.1117C322.086 91.6272 321.89 91.0646 321.843 90.4239H323.305C323.342 90.8663 323.491 91.2325 323.75 91.5223C324.012 91.8085 324.343 92.0221 324.741 92.1631C325.144 92.3005 325.578 92.3691 326.042 92.3691C326.582 92.3691 327.067 92.2813 327.498 92.1059C327.927 91.9267 328.267 91.6788 328.518 91.3622C328.77 91.0417 328.895 90.6679 328.895 90.2408C328.895 89.8518 328.786 89.5352 328.569 89.2911C328.352 89.047 328.068 88.8487 327.714 88.6961C327.359 88.5435 326.979 88.41 326.567 88.2956L325.13 87.8836C324.217 87.6204 323.494 87.2448 322.963 86.7565C322.429 86.2683 322.163 85.6294 322.163 84.8399C322.163 84.1839 322.339 83.6118 322.694 83.1236C323.051 82.6316 323.53 82.25 324.131 81.9792C324.736 81.7047 325.411 81.5673 326.156 81.5673C326.91 81.5673 327.58 81.7028 328.164 81.9736C328.751 82.2405 329.215 82.6067 329.557 83.072C329.902 83.5373 330.086 84.0656 330.105 84.6569H328.735ZM342.667 81.7276H344.081V89.4855C344.081 90.2866 343.893 91.0018 343.517 91.6311C343.144 92.2565 342.617 92.7505 341.936 93.1128C341.255 93.4714 340.457 93.6506 339.541 93.6506C338.624 93.6506 337.825 93.4714 337.144 93.1128C336.463 92.7505 335.935 92.2565 335.559 91.6311C335.186 91.0018 335 90.2866 335 89.4855V81.7276H336.415V89.3712C336.415 89.9433 336.54 90.4525 336.791 90.8987C337.041 91.3412 337.4 91.6902 337.864 91.9457C338.331 92.1975 338.89 92.3234 339.541 92.3234C340.19 92.3234 340.749 92.1975 341.218 91.9457C341.686 91.6902 342.042 91.3412 342.29 90.8987C342.542 90.4525 342.667 89.9433 342.667 89.3712V81.7276ZM350.731 81.7276V93.4447H349.316V81.7276H350.731ZM349.408 80.5374L350.799 77.8828H352.373L350.593 80.5374H349.408ZM355.339 82.9862V81.7276H364.1V82.9862H360.426V93.4447H359.012V82.9862H355.339ZM368.694 93.4447V81.7276H375.745V82.9862H370.108V86.9453H375.379V88.2041H370.108V92.1861H375.837V93.4447H368.694Z" fill="#344364"/>
<path d="M22.0952 117.887C21.2856 117.887 20.5868 117.732 19.9988 117.423C19.4205 117.114 18.9771 116.703 18.6687 116.19C18.3603 115.668 18.2061 115.088 18.2061 114.45H20.1868C20.1868 114.963 20.3555 115.378 20.6928 115.697C21.0398 116.007 21.5073 116.161 22.0952 116.161C22.4904 116.161 22.8277 116.089 23.1073 115.944C23.3964 115.789 23.6181 115.581 23.7723 115.32C23.9265 115.05 24.0036 114.74 24.0036 114.392C24.0036 113.87 23.835 113.445 23.4976 113.116C23.1603 112.778 22.6976 112.609 22.1097 112.609C21.8205 112.609 21.5651 112.648 21.3434 112.725C21.1314 112.802 20.9434 112.904 20.7795 113.029L19.8398 111.405L23.3097 109.027L23.1795 108.781H18.6398V107.026H25.5362V109.143L21.9651 111.521L20.8518 111.318C21.035 111.26 21.2326 111.217 21.4446 111.188C21.6567 111.149 21.888 111.13 22.1386 111.13C22.9386 111.13 23.6229 111.27 24.1916 111.55C24.7699 111.821 25.2133 112.198 25.5217 112.681C25.8302 113.165 25.9844 113.721 25.9844 114.349V114.537C25.9844 115.146 25.8302 115.707 25.5217 116.219C25.2133 116.722 24.7699 117.128 24.1916 117.437C23.6133 117.737 22.9145 117.887 22.0952 117.887ZM31.5792 117.916C30.7985 117.916 30.1334 117.785 29.584 117.524C29.0443 117.254 28.6057 116.886 28.2684 116.422C27.931 115.958 27.6853 115.422 27.531 114.813C27.3768 114.194 27.2997 113.542 27.2997 112.855V112.217C27.2997 110.487 27.7334 109.177 28.6009 108.288C29.478 107.389 30.7599 106.939 32.4467 106.939C32.813 106.939 33.1551 106.949 33.4732 106.968C33.7913 106.988 34.1093 107.017 34.4274 107.055V108.781C34.1093 108.742 33.7816 108.713 33.4443 108.694C33.1166 108.675 32.7599 108.665 32.3744 108.665C31.5648 108.665 30.9286 108.805 30.466 109.085C30.0033 109.366 29.6708 109.777 29.4684 110.318C29.2756 110.859 29.1792 111.531 29.1792 112.333V113.276L28.7166 113.943C28.7262 113.199 28.8708 112.585 29.1503 112.101C29.4395 111.608 29.8346 111.241 30.3359 110.999C30.8371 110.748 31.4106 110.622 32.0563 110.622C32.8081 110.622 33.4491 110.772 33.9792 111.072C34.5093 111.372 34.9142 111.787 35.1937 112.319C35.4828 112.851 35.6274 113.469 35.6274 114.175C35.6274 114.91 35.4636 115.562 35.1359 116.132C34.8081 116.693 34.3407 117.133 33.7334 117.452C33.1359 117.761 32.4178 117.916 31.5792 117.916ZM31.5359 116.19C31.9889 116.19 32.3744 116.108 32.6925 115.944C33.0106 115.77 33.2515 115.533 33.4154 115.233C33.5792 114.934 33.6612 114.591 33.6612 114.204C33.6612 113.808 33.5792 113.46 33.4154 113.16C33.2612 112.86 33.0298 112.628 32.7214 112.464C32.413 112.3 32.0419 112.217 31.6081 112.217C31.1937 112.217 30.813 112.295 30.466 112.449C30.1286 112.594 29.8587 112.817 29.6563 113.116C29.4636 113.406 29.3672 113.769 29.3672 114.204C29.3672 114.581 29.4443 114.919 29.5985 115.219C29.7624 115.519 30.0033 115.755 30.3214 115.929C30.6491 116.103 31.0539 116.19 31.5359 116.19Z" fill="#344364"/>
<path d="M37.9629 117.61V110.612H39.3765V113.615H39.248C39.248 112.91 39.338 112.322 39.5179 111.849C39.6978 111.368 39.9634 111.007 40.3147 110.766C40.6745 110.517 41.12 110.393 41.6512 110.393H41.7284C42.2681 110.393 42.7136 110.517 43.0649 110.766C43.4247 111.007 43.6903 111.368 43.8617 111.849C44.0416 112.322 44.1316 112.91 44.1316 113.615H43.6818C43.6818 112.91 43.7717 112.322 43.9516 111.849C44.1401 111.368 44.41 111.007 44.7613 110.766C45.1211 110.517 45.5666 110.393 46.0978 110.393H46.1749C46.7147 110.393 47.1645 110.517 47.5243 110.766C47.8842 111.007 48.1541 111.368 48.334 111.849C48.5224 112.322 48.6167 112.91 48.6167 113.615V117.61H46.8304V113.447C46.8304 113.009 46.719 112.661 46.4962 112.403C46.2734 112.137 45.9565 112.004 45.5452 112.004C45.134 112.004 44.8042 112.141 44.5557 112.416C44.3071 112.682 44.183 113.043 44.183 113.499V117.61H42.3966V113.447C42.3966 113.009 42.2853 112.661 42.0625 112.403C41.8397 112.137 41.5227 112.004 41.1115 112.004C40.7002 112.004 40.3704 112.141 40.1219 112.416C39.8734 112.682 39.7492 113.043 39.7492 113.499V117.61H37.9629Z" fill="#344364"/>
<path d="M37.9629 117.61V110.612H39.3765V113.615H39.248C39.248 112.91 39.338 112.322 39.5179 111.849C39.6978 111.368 39.9634 111.007 40.3147 110.766C40.6745 110.517 41.12 110.393 41.6512 110.393H41.7284C42.2681 110.393 42.7136 110.517 43.0649 110.766C43.4247 111.007 43.6903 111.368 43.8617 111.849C44.0416 112.322 44.1316 112.91 44.1316 113.615H43.6818C43.6818 112.91 43.7717 112.322 43.9516 111.849C44.1401 111.368 44.41 111.007 44.7613 110.766C45.1211 110.517 45.5666 110.393 46.0978 110.393H46.1749C46.7147 110.393 47.1645 110.517 47.5243 110.766C47.8842 111.007 48.1541 111.368 48.334 111.849C48.5224 112.322 48.6167 112.91 48.6167 113.615V117.61H46.8304V113.447C46.8304 113.009 46.719 112.661 46.4962 112.403C46.2734 112.137 45.9565 112.004 45.5452 112.004C45.134 112.004 44.8042 112.141 44.5557 112.416C44.3071 112.682 44.183 113.043 44.183 113.499V117.61H42.3966V113.447C42.3966 113.009 42.2853 112.661 42.0625 112.403C41.8397 112.137 41.5227 112.004 41.1115 112.004C40.7002 112.004 40.3704 112.141 40.1219 112.416C39.8734 112.682 39.7492 113.043 39.7492 113.499V117.61H37.9629Z" fill="#344364"/>
<path d="M50.217 112.777V111.875C50.217 111.677 50.247 111.506 50.307 111.36C50.3712 111.213 50.474 111.084 50.6154 110.973C50.7611 110.857 50.9516 110.747 51.1873 110.644L51.9841 110.29C52.1812 110.199 52.3311 110.09 52.4339 109.961C52.541 109.828 52.5945 109.658 52.5945 109.452C52.5945 109.224 52.5259 109.044 52.3889 108.911C52.256 108.773 52.0655 108.704 51.817 108.704C51.5685 108.704 51.3757 108.773 51.2387 108.911C51.1058 109.048 51.0395 109.239 51.0395 109.484H50.1592C50.1592 109.192 50.2213 108.93 50.3455 108.698C50.4697 108.462 50.654 108.277 50.8981 108.144C51.1423 108.006 51.4487 107.938 51.817 107.938C52.1854 107.938 52.4917 108.004 52.7359 108.137C52.9801 108.271 53.1643 108.449 53.2885 108.672C53.4127 108.891 53.4748 109.136 53.4748 109.407V109.491C53.4748 109.843 53.3764 110.137 53.1793 110.374C52.9822 110.606 52.693 110.807 52.3118 110.979L51.515 111.334C51.3651 111.398 51.2601 111.467 51.2001 111.54C51.1402 111.609 51.1102 111.703 51.1102 111.823V112.236L50.8917 111.997H53.4941V112.777H50.217Z" fill="#344364"/>
<path d="M61.847 100.695H8.83496V123.251H61.847V100.695Z" stroke="#344364"/>
<path d="M218.802 117.916C218.021 117.916 217.356 117.785 216.807 117.524C216.267 117.254 215.829 116.886 215.491 116.422C215.154 115.958 214.908 115.422 214.754 114.813C214.6 114.194 214.522 113.542 214.522 112.855V112.217C214.522 110.487 214.956 109.177 215.824 108.288C216.701 107.389 217.983 106.939 219.669 106.939C220.036 106.939 220.378 106.949 220.696 106.968C221.014 106.988 221.332 107.017 221.65 107.055V108.781C221.332 108.742 221.004 108.713 220.667 108.694C220.339 108.675 219.983 108.665 219.597 108.665C218.788 108.665 218.151 108.805 217.689 109.085C217.226 109.366 216.894 109.777 216.691 110.318C216.498 110.859 216.402 111.531 216.402 112.333V113.276L215.939 113.943C215.949 113.199 216.094 112.585 216.373 112.101C216.662 111.608 217.057 111.241 217.559 110.999C218.06 110.748 218.633 110.622 219.279 110.622C220.031 110.622 220.672 110.772 221.202 111.072C221.732 111.372 222.137 111.787 222.416 112.319C222.706 112.851 222.85 113.469 222.85 114.175C222.85 114.91 222.686 115.562 222.359 116.132C222.031 116.693 221.563 117.133 220.956 117.452C220.359 117.761 219.641 117.916 218.802 117.916ZM218.759 116.19C219.212 116.19 219.597 116.108 219.915 115.944C220.233 115.77 220.474 115.533 220.638 115.233C220.802 114.934 220.884 114.591 220.884 114.204C220.884 113.808 220.802 113.46 220.638 113.16C220.484 112.86 220.253 112.628 219.944 112.464C219.636 112.3 219.265 112.217 218.831 112.217C218.416 112.217 218.036 112.295 217.689 112.449C217.351 112.594 217.082 112.817 216.879 113.116C216.686 113.406 216.59 113.769 216.59 114.204C216.59 114.581 216.667 114.919 216.821 115.219C216.985 115.519 217.226 115.755 217.544 115.929C217.872 116.103 218.277 116.19 218.759 116.19ZM225.84 117.611V108.302L226.476 108.795H223.686V107.026H227.878V117.611H225.84Z" fill="#344364"/>
<path d="M233.947 117.61V110.612H235.361V113.615H235.232C235.232 112.91 235.322 112.322 235.502 111.849C235.682 111.368 235.947 111.007 236.299 110.766C236.659 110.517 237.104 110.393 237.636 110.393H237.713C238.252 110.393 238.697 110.517 239.049 110.766C239.409 111.007 239.674 111.368 239.846 111.849C240.026 112.322 240.116 112.91 240.116 113.615H239.666C239.666 112.91 239.756 112.322 239.936 111.849C240.124 111.368 240.394 111.007 240.746 110.766C241.105 110.517 241.55 110.393 242.082 110.393H242.159C242.699 110.393 243.149 110.517 243.509 110.766C243.869 111.007 244.138 111.368 244.318 111.849C244.506 112.322 244.601 112.91 244.601 113.615V117.61H242.815V113.447C242.815 113.009 242.704 112.661 242.481 112.403C242.257 112.137 241.941 112.004 241.53 112.004C241.118 112.004 240.789 112.141 240.54 112.416C240.291 112.682 240.167 113.043 240.167 113.499V117.61H238.381V113.447C238.381 113.009 238.27 112.661 238.047 112.403C237.824 112.137 237.507 112.004 237.096 112.004C236.685 112.004 236.355 112.141 236.106 112.416C235.857 112.682 235.734 113.043 235.734 113.499V117.61H233.947Z" fill="#344364"/>
<path d="M233.947 117.61V110.612H235.361V113.615H235.232C235.232 112.91 235.322 112.322 235.502 111.849C235.682 111.368 235.947 111.007 236.299 110.766C236.659 110.517 237.104 110.393 237.636 110.393H237.713C238.252 110.393 238.697 110.517 239.049 110.766C239.409 111.007 239.674 111.368 239.846 111.849C240.026 112.322 240.116 112.91 240.116 113.615H239.666C239.666 112.91 239.756 112.322 239.936 111.849C240.124 111.368 240.394 111.007 240.746 110.766C241.105 110.517 241.55 110.393 242.082 110.393H242.159C242.699 110.393 243.149 110.517 243.509 110.766C243.869 111.007 244.138 111.368 244.318 111.849C244.506 112.322 244.601 112.91 244.601 113.615V117.61H242.815V113.447C242.815 113.009 242.704 112.661 242.481 112.403C242.257 112.137 241.941 112.004 241.53 112.004C241.118 112.004 240.789 112.141 240.54 112.416C240.291 112.682 240.167 113.043 240.167 113.499V117.61H238.381V113.447C238.381 113.009 238.27 112.661 238.047 112.403C237.824 112.137 237.507 112.004 237.096 112.004C236.685 112.004 236.355 112.141 236.106 112.416C235.857 112.682 235.734 113.043 235.734 113.499V117.61H233.947Z" fill="#344364"/>
<path d="M246.2 112.777V111.875C246.2 111.677 246.231 111.506 246.29 111.36C246.355 111.213 246.457 111.084 246.599 110.973C246.745 110.857 246.935 110.747 247.171 110.644L247.967 110.29C248.165 110.199 248.314 110.09 248.417 109.961C248.525 109.828 248.578 109.658 248.578 109.452C248.578 109.224 248.509 109.044 248.372 108.911C248.239 108.773 248.049 108.704 247.8 108.704C247.551 108.704 247.359 108.773 247.222 108.911C247.089 109.048 247.023 109.239 247.023 109.484H246.143C246.143 109.192 246.205 108.93 246.329 108.698C246.453 108.462 246.637 108.277 246.882 108.144C247.126 108.006 247.433 107.938 247.8 107.938C248.168 107.938 248.475 108.004 248.719 108.137C248.963 108.271 249.148 108.449 249.272 108.672C249.396 108.891 249.458 109.136 249.458 109.407V109.491C249.458 109.843 249.36 110.137 249.163 110.374C248.965 110.606 248.676 110.807 248.295 110.979L247.498 111.334C247.349 111.398 247.243 111.467 247.184 111.54C247.124 111.609 247.094 111.703 247.094 111.823V112.236L246.875 111.997H249.478V112.777H246.2Z" fill="#344364"/>
<path d="M257.831 100.695H203.213V123.251H257.831V100.695Z" stroke="#344364"/>
</g>
<defs>
<clipPath id="clip0_186_23">
<rect width="400" height="145" fill="white"/>
</clipPath>
</defs>
</svg>
