<svg width="417" height="67" viewBox="0 0 417 67" fill="none" xmlns="http://www.w3.org/2000/svg">
<path d="M28.32 30V17.96L29.2 18.64H25.6V15.4H32.04V30H28.32ZM36.1137 31.2L40.2737 14.4H44.0338L39.8738 31.2H36.1137ZM47.1084 27.42V23.64L52.4684 14.96L55.4084 16.82L50.9884 24.02L51.2884 24.46H59.7884V27.42H47.1084ZM54.7684 30V19.42H58.2084V30H54.7684ZM76.9633 30.4C75.6433 30.4 74.5099 30.1733 73.5633 29.72C72.6166 29.2533 71.8366 28.6467 71.2233 27.9C70.6099 27.14 70.1566 26.32 69.8633 25.44C69.5699 24.56 69.4233 23.7067 69.4233 22.88V22.44C69.4233 21.52 69.5699 20.62 69.8633 19.74C70.1699 18.8467 70.6299 18.04 71.2433 17.32C71.8699 16.6 72.6499 16.0267 73.5833 15.6C74.5166 15.1733 75.6099 14.96 76.8633 14.96C78.1966 14.96 79.3766 15.2133 80.4033 15.72C81.4433 16.2133 82.2766 16.9133 82.9033 17.82C83.5299 18.7133 83.8966 19.7533 84.0033 20.94H80.2833C80.1899 20.4333 79.9899 19.9933 79.6833 19.62C79.3766 19.2467 78.9833 18.96 78.5033 18.76C78.0233 18.5467 77.4766 18.44 76.8633 18.44C76.2899 18.44 75.7699 18.54 75.3033 18.74C74.8499 18.94 74.4633 19.2267 74.1433 19.6C73.8366 19.96 73.5966 20.4 73.4233 20.92C73.2633 21.44 73.1833 22.0267 73.1833 22.68C73.1833 23.3333 73.2633 23.92 73.4233 24.44C73.5966 24.96 73.8433 25.4067 74.1633 25.78C74.4966 26.1533 74.8966 26.44 75.3633 26.64C75.8299 26.8267 76.3633 26.92 76.9633 26.92C77.8966 26.92 78.6833 26.6933 79.3233 26.24C79.9766 25.7867 80.3699 25.18 80.5033 24.42H84.2233C84.1033 25.5133 83.7366 26.5133 83.1233 27.42C82.5099 28.3267 81.6833 29.0533 80.6433 29.6C79.6033 30.1333 78.3766 30.4 76.9633 30.4ZM95.5384 30.4C94.2051 30.4 93.0451 30.1733 92.0584 29.72C91.0718 29.2533 90.2518 28.6467 89.5984 27.9C88.9451 27.14 88.4584 26.32 88.1384 25.44C87.8184 24.56 87.6584 23.7067 87.6584 22.88V22.44C87.6584 21.52 87.8251 20.62 88.1584 19.74C88.4918 18.8467 88.9918 18.04 89.6584 17.32C90.3251 16.6 91.1451 16.0267 92.1184 15.6C93.1051 15.1733 94.2451 14.96 95.5384 14.96C96.8184 14.96 97.9451 15.1733 98.9184 15.6C99.9051 16.0267 100.732 16.6 101.398 17.32C102.065 18.04 102.565 18.8467 102.898 19.74C103.245 20.62 103.418 21.52 103.418 22.44V22.88C103.418 23.7067 103.252 24.56 102.918 25.44C102.598 26.32 102.112 27.14 101.458 27.9C100.805 28.6467 99.9851 29.2533 98.9984 29.72C98.0118 30.1733 96.8584 30.4 95.5384 30.4ZM95.5384 26.92C96.1784 26.92 96.7518 26.8133 97.2584 26.6C97.7651 26.3867 98.1984 26.0867 98.5584 25.7C98.9184 25.3133 99.1918 24.8667 99.3784 24.36C99.5651 23.84 99.6584 23.28 99.6584 22.68C99.6584 22.04 99.5584 21.46 99.3584 20.94C99.1718 20.42 98.8984 19.9733 98.5384 19.6C98.1784 19.2267 97.7451 18.94 97.2384 18.74C96.7318 18.54 96.1651 18.44 95.5384 18.44C94.8984 18.44 94.3251 18.54 93.8184 18.74C93.3118 18.94 92.8784 19.2267 92.5184 19.6C92.1584 19.9733 91.8851 20.42 91.6984 20.94C91.5118 21.46 91.4184 22.04 91.4184 22.68C91.4184 23.28 91.5118 23.84 91.6984 24.36C91.8851 24.8667 92.1584 25.3133 92.5184 25.7C92.8784 26.0867 93.3118 26.3867 93.8184 26.6C94.3251 26.8133 94.8984 26.92 95.5384 26.92ZM107.864 30V15.4H113.024L116.024 23.1H116.424L119.404 15.4H124.664V30H120.984V17.54L121.564 17.58L117.804 27.06H114.424L110.644 17.58L111.264 17.54V30H107.864ZM29.64 55L25.4 40.4H29.24L32.42 52.38L31.72 52.04H33.64L32.92 52.38L35.88 40.4H39.6L35.64 55H29.64ZM41.3248 55L46.0048 40.4H51.9648L56.8048 55H52.9648L49.2048 43L50.2648 43.4H47.6248L48.7048 43L45.0448 55H41.3248ZM45.1448 51.62L46.2648 48.58H51.8048L52.9248 51.62H45.1448ZM60.6456 55V40.28H64.3656V55H60.6456ZM69.4456 55L65.3456 48.8H69.3856L73.7256 55H69.4456ZM63.4256 50.52V47.66H66.9256C67.3656 47.66 67.7456 47.5733 68.0656 47.4C68.3856 47.2267 68.6323 46.98 68.8056 46.66C68.9923 46.34 69.0856 45.9667 69.0856 45.54C69.0856 45.1 68.9923 44.72 68.8056 44.4C68.6323 44.08 68.3856 43.8333 68.0656 43.66C67.7456 43.4867 67.3656 43.4 66.9256 43.4H63.4256V40.28H66.7056C67.9723 40.28 69.0656 40.4733 69.9856 40.86C70.9056 41.2333 71.6123 41.7933 72.1056 42.54C72.599 43.2733 72.8456 44.1867 72.8456 45.28V45.6C72.8456 46.6933 72.5923 47.6067 72.0856 48.34C71.5923 49.06 70.8856 49.6067 69.9656 49.98C69.059 50.34 67.9723 50.52 66.7056 50.52H63.4256ZM76.3303 55L81.0103 40.4H86.9703L91.8103 55H87.9703L84.2103 43L85.2703 43.4H82.6303L83.7103 43L80.0503 55H76.3303ZM80.1503 51.62L81.2703 48.58H86.8103L87.9303 51.62H80.1503ZM95.6511 55V40.4H101.751L106.611 52.04H107.311L106.911 52.4V40.4H110.391V55H104.251L99.3911 43.36H98.6911L99.0911 43V55H95.6511ZM118.866 55.08V51.6H121.266C121.893 51.6 122.453 51.5133 122.946 51.34C123.453 51.1533 123.88 50.8933 124.226 50.56C124.573 50.2133 124.84 49.8 125.026 49.32C125.213 48.8267 125.306 48.2733 125.306 47.66C125.306 47.02 125.213 46.46 125.026 45.98C124.84 45.4867 124.573 45.08 124.226 44.76C123.88 44.4267 123.453 44.18 122.946 44.02C122.453 43.8467 121.893 43.76 121.266 43.76H118.866V40.28H121.106C122.426 40.28 123.58 40.4667 124.566 40.84C125.566 41.2133 126.4 41.7333 127.066 42.4C127.733 43.0533 128.233 43.8133 128.566 44.68C128.9 45.5467 129.066 46.4667 129.066 47.44V47.88C129.066 48.7733 128.9 49.6533 128.566 50.52C128.233 51.3733 127.733 52.1467 127.066 52.84C126.4 53.52 125.566 54.0667 124.566 54.48C123.58 54.88 122.426 55.08 121.106 55.08H118.866ZM115.546 55.08V40.28H119.266V55.08H115.546ZM131.329 55L136.009 40.4H141.969L146.809 55H142.969L139.209 43L140.269 43.4H137.629L138.709 43L135.049 55H131.329ZM135.149 51.62L136.269 48.58H141.809L142.929 51.62H135.149Z" fill="#344364"/>
<rect x="0.5" y="0.5" width="174" height="66" stroke="#344364"/>
<path d="M215.08 35V31.8C215.08 31.16 215.187 30.6 215.4 30.12C215.627 29.6267 215.973 29.1933 216.44 28.82C216.92 28.4467 217.54 28.1 218.3 27.78L220.52 26.84C221.093 26.6 221.507 26.3133 221.76 25.98C222.027 25.6467 222.16 25.2267 222.16 24.72C222.16 24.2533 222 23.86 221.68 23.54C221.373 23.2067 220.92 23.04 220.32 23.04C219.707 23.04 219.247 23.2133 218.94 23.56C218.633 23.8933 218.48 24.3467 218.48 24.92H214.88C214.88 23.96 215.087 23.1067 215.5 22.36C215.913 21.6133 216.52 21.0267 217.32 20.6C218.133 20.1733 219.133 19.96 220.32 19.96C221.493 19.96 222.48 20.1667 223.28 20.58C224.093 20.98 224.707 21.5333 225.12 22.24C225.547 22.9333 225.76 23.72 225.76 24.6V24.84C225.76 25.9733 225.453 26.9067 224.84 27.64C224.227 28.3733 223.24 29.0333 221.88 29.62L219.66 30.56C219.34 30.6933 219.1 30.84 218.94 31C218.793 31.16 218.72 31.3733 218.72 31.64V32.36L217.86 31.8H225.72V35H215.08ZM229.235 36.2L233.395 19.4H237.155L232.995 36.2H229.235ZM240.23 32.42V28.64L245.59 19.96L248.53 21.82L244.11 29.02L244.41 29.46H252.91V32.42H240.23ZM247.89 35V24.42H251.33V35H247.89ZM270.084 35.4C268.764 35.4 267.631 35.1733 266.684 34.72C265.738 34.2533 264.958 33.6467 264.344 32.9C263.731 32.14 263.278 31.32 262.984 30.44C262.691 29.56 262.544 28.7067 262.544 27.88V27.44C262.544 26.52 262.691 25.62 262.984 24.74C263.291 23.8467 263.751 23.04 264.364 22.32C264.991 21.6 265.771 21.0267 266.704 20.6C267.638 20.1733 268.731 19.96 269.984 19.96C271.318 19.96 272.498 20.2133 273.524 20.72C274.564 21.2133 275.398 21.9133 276.024 22.82C276.651 23.7133 277.018 24.7533 277.124 25.94H273.404C273.311 25.4333 273.111 24.9933 272.804 24.62C272.498 24.2467 272.104 23.96 271.624 23.76C271.144 23.5467 270.598 23.44 269.984 23.44C269.411 23.44 268.891 23.54 268.424 23.74C267.971 23.94 267.584 24.2267 267.264 24.6C266.958 24.96 266.718 25.4 266.544 25.92C266.384 26.44 266.304 27.0267 266.304 27.68C266.304 28.3333 266.384 28.92 266.544 29.44C266.718 29.96 266.964 30.4067 267.284 30.78C267.618 31.1533 268.018 31.44 268.484 31.64C268.951 31.8267 269.484 31.92 270.084 31.92C271.018 31.92 271.804 31.6933 272.444 31.24C273.098 30.7867 273.491 30.18 273.624 29.42H277.344C277.224 30.5133 276.858 31.5133 276.244 32.42C275.631 33.3267 274.804 34.0533 273.764 34.6C272.724 35.1333 271.498 35.4 270.084 35.4ZM288.66 35.4C287.326 35.4 286.166 35.1733 285.18 34.72C284.193 34.2533 283.373 33.6467 282.72 32.9C282.066 32.14 281.58 31.32 281.26 30.44C280.94 29.56 280.78 28.7067 280.78 27.88V27.44C280.78 26.52 280.946 25.62 281.28 24.74C281.613 23.8467 282.113 23.04 282.78 22.32C283.446 21.6 284.266 21.0267 285.24 20.6C286.226 20.1733 287.366 19.96 288.66 19.96C289.94 19.96 291.066 20.1733 292.04 20.6C293.026 21.0267 293.853 21.6 294.52 22.32C295.186 23.04 295.686 23.8467 296.02 24.74C296.366 25.62 296.54 26.52 296.54 27.44V27.88C296.54 28.7067 296.373 29.56 296.04 30.44C295.72 31.32 295.233 32.14 294.58 32.9C293.926 33.6467 293.106 34.2533 292.12 34.72C291.133 35.1733 289.98 35.4 288.66 35.4ZM288.66 31.92C289.3 31.92 289.873 31.8133 290.38 31.6C290.886 31.3867 291.32 31.0867 291.68 30.7C292.04 30.3133 292.313 29.8667 292.5 29.36C292.686 28.84 292.78 28.28 292.78 27.68C292.78 27.04 292.68 26.46 292.48 25.94C292.293 25.42 292.02 24.9733 291.66 24.6C291.3 24.2267 290.866 23.94 290.36 23.74C289.853 23.54 289.286 23.44 288.66 23.44C288.02 23.44 287.446 23.54 286.94 23.74C286.433 23.94 286 24.2267 285.64 24.6C285.28 24.9733 285.006 25.42 284.82 25.94C284.633 26.46 284.54 27.04 284.54 27.68C284.54 28.28 284.633 28.84 284.82 29.36C285.006 29.8667 285.28 30.3133 285.64 30.7C286 31.0867 286.433 31.3867 286.94 31.6C287.446 31.8133 288.02 31.92 288.66 31.92ZM300.985 35V20.4H306.145L309.145 28.1H309.545L312.525 20.4H317.785V35H314.105V22.54L314.685 22.58L310.925 32.06H307.545L303.765 22.58L304.385 22.54V35H300.985ZM334.432 35.4C333.072 35.4 331.926 35.1867 330.992 34.76C330.072 34.3333 329.372 33.7533 328.892 33.02C328.426 32.2733 328.192 31.42 328.192 30.46H331.792C331.792 30.8067 331.886 31.1267 332.072 31.42C332.272 31.7 332.566 31.92 332.952 32.08C333.339 32.24 333.832 32.32 334.432 32.32C334.952 32.32 335.392 32.2533 335.752 32.12C336.126 31.9867 336.406 31.8 336.592 31.56C336.792 31.32 336.892 31.0333 336.892 30.7C336.892 30.2733 336.712 29.9467 336.352 29.72C335.992 29.48 335.386 29.3267 334.532 29.26L333.592 29.18C332.086 29.0467 330.886 28.5733 329.992 27.76C329.099 26.9467 328.652 25.8667 328.652 24.52C328.652 23.56 328.872 22.74 329.312 22.06C329.766 21.38 330.399 20.86 331.212 20.5C332.026 20.14 332.986 19.96 334.092 19.96C335.292 19.96 336.306 20.16 337.132 20.56C337.972 20.96 338.612 21.5267 339.052 22.26C339.492 22.98 339.712 23.82 339.712 24.78H336.112C336.112 24.46 336.032 24.1667 335.872 23.9C335.712 23.6333 335.479 23.4267 335.172 23.28C334.879 23.12 334.519 23.04 334.092 23.04C333.692 23.04 333.352 23.1067 333.072 23.24C332.806 23.36 332.599 23.5333 332.452 23.76C332.319 23.9867 332.252 24.24 332.252 24.52C332.252 24.8933 332.379 25.2133 332.632 25.48C332.886 25.7467 333.326 25.9067 333.952 25.96L334.892 26.04C335.986 26.1333 336.952 26.3733 337.792 26.76C338.632 27.1333 339.292 27.6467 339.772 28.3C340.252 28.9533 340.492 29.7533 340.492 30.7C340.492 31.6467 340.246 32.4733 339.752 33.18C339.272 33.8867 338.579 34.4333 337.672 34.82C336.779 35.2067 335.699 35.4 334.432 35.4ZM350.856 35.4C349.456 35.4 348.269 35.14 347.296 34.62C346.336 34.1 345.603 33.3667 345.096 32.42C344.589 31.46 344.336 30.3267 344.336 29.02V20.4H348.056V29.1C348.056 29.6733 348.163 30.1733 348.376 30.6C348.603 31.0267 348.923 31.3533 349.336 31.58C349.749 31.8067 350.256 31.92 350.856 31.92C351.456 31.92 351.963 31.8067 352.376 31.58C352.789 31.3533 353.103 31.0333 353.316 30.62C353.529 30.1933 353.636 29.6867 353.636 29.1V20.4H357.356V29.02C357.356 30.3267 357.103 31.46 356.596 32.42C356.103 33.3667 355.369 34.1 354.396 34.62C353.436 35.14 352.256 35.4 350.856 35.4ZM362.286 35V20.4H366.006V35H362.286ZM362.246 19.32L364.726 15.64H368.566L365.726 19.32H362.246ZM374.123 35V23.24H377.843V35H374.123ZM370.123 23.64V20.4H381.843V23.64H370.123ZM385.923 35V20.4H389.523V35H385.923ZM389.123 35V31.96H395.283V35H389.123ZM389.123 29.1V26.06H394.863V29.1H389.123ZM389.123 23.44V20.4H395.163V23.44H389.123Z" fill="#344364"/>
<path d="M215.59 54V43.05H217.06V54H215.59ZM216.76 54V52.68H222.07V54H216.76ZM216.76 49.095V47.775H221.605V49.095H216.76ZM216.76 44.37V43.05H221.92V44.37H216.76ZM233.832 54L230.037 43.05H231.552L234.957 53.04L234.237 52.68H236.037L235.272 53.04L238.407 43.05H239.877L236.352 54H233.832ZM241.767 54L245.712 43.05H248.202L252.267 54H250.752L247.077 44.01L247.797 44.37H246.027L246.792 44.01L243.237 54H241.767ZM244.122 50.73L244.617 49.41H249.342L249.837 50.73H244.122ZM255.925 54V42.99H257.395V54H255.925ZM262.69 54L259.06 49.125H260.785L264.475 54H262.69ZM256.84 50.04V48.735H259.78C260.24 48.735 260.635 48.64 260.965 48.45C261.295 48.26 261.55 48 261.73 47.67C261.91 47.33 262 46.945 262 46.515C262 46.085 261.91 45.705 261.73 45.375C261.55 45.035 261.295 44.77 260.965 44.58C260.635 44.38 260.24 44.28 259.78 44.28H256.84V42.99H259.51C260.31 42.99 261.01 43.11 261.61 43.35C262.21 43.59 262.675 43.96 263.005 44.46C263.335 44.96 263.5 45.605 263.5 46.395V46.635C263.5 47.425 263.33 48.07 262.99 48.57C262.66 49.07 262.195 49.44 261.595 49.68C261.005 49.92 260.31 50.04 259.51 50.04H256.84ZM266.908 54L270.853 43.05H273.343L277.408 54H275.893L272.218 44.01L272.938 44.37H271.168L271.933 44.01L268.378 54H266.908ZM269.263 50.73L269.758 49.41H274.483L274.978 50.73H269.263ZM281.066 54V43.05H283.466L289.031 52.68H289.511L289.211 52.95V43.05H290.621V54H288.191L282.626 44.37H282.146L282.446 44.1V54H281.066ZM296.616 54.06V52.71H299.346C300.006 52.71 300.591 52.605 301.101 52.395C301.621 52.175 302.061 51.875 302.421 51.495C302.791 51.115 303.071 50.67 303.261 50.16C303.451 49.65 303.546 49.1 303.546 48.51C303.546 47.89 303.451 47.33 303.261 46.83C303.071 46.32 302.791 45.88 302.421 45.51C302.061 45.13 301.621 44.84 301.101 44.64C300.591 44.44 300.006 44.34 299.346 44.34H296.616V42.99H299.196C300.186 42.99 301.046 43.145 301.776 43.455C302.506 43.755 303.111 44.165 303.591 44.685C304.081 45.195 304.446 45.77 304.686 46.41C304.926 47.04 305.046 47.685 305.046 48.345V48.675C305.046 49.315 304.926 49.955 304.686 50.595C304.446 51.235 304.081 51.815 303.591 52.335C303.111 52.855 302.506 53.275 301.776 53.595C301.046 53.905 300.186 54.06 299.196 54.06H296.616ZM295.446 54.06V42.99H296.916V54.06H295.446ZM307.439 54L311.384 43.05H313.874L317.939 54H316.424L312.749 44.01L313.469 44.37H311.699L312.464 44.01L308.909 54H307.439ZM309.794 50.73L310.289 49.41H315.014L315.509 50.73H309.794Z" fill="#263243"/>
<rect x="193.5" y="0.5" width="223" height="66" stroke="#344364"/>
</svg>
